<mxfile host="65bd71144e">
    <diagram id="T5GH4w8jtpImpASq0pbi" name="Page-1">
        <mxGraphModel dx="1160" dy="976" grid="0" gridSize="10" guides="1" tooltips="1" connect="1" arrows="1" fold="1" page="1" pageScale="1" pageWidth="850" pageHeight="1100" background="#FFFFFF" math="0" shadow="0">
            <root>
                <mxCell id="0"/>
                <mxCell id="1" parent="0"/>
                <mxCell id="7" value="&lt;p style=&quot;margin-bottom:0in;margin-bottom:.0001pt&quot; class=&quot;MsoNormal&quot;&gt;&lt;span style=&quot;font-size:16.0pt;font-family:&amp;quot;Arial Rounded MT Bold&amp;quot;,&amp;quot;sans-serif&amp;quot;;&lt;br/&gt;mso-ansi-language:EN-US&quot;&gt;Oyetibo Olaoluwa Emmanul&lt;/span&gt;&lt;/p&gt;&lt;br&gt;&lt;br&gt;&lt;p style=&quot;margin-bottom:0in;margin-bottom:.0001pt&quot; class=&quot;MsoNormal&quot;&gt;&lt;font face=&quot;Arial Rounded MT Bold, sans-serif&quot;&gt;&lt;span style=&quot;font-size: 21.3333px;&quot;&gt;Computer Science&lt;/span&gt;&lt;/font&gt;&lt;/p&gt;&lt;br&gt;&lt;p style=&quot;margin-bottom:0in;margin-bottom:.0001pt&quot; class=&quot;MsoNormal&quot;&gt;&lt;span style=&quot;font-size:16.0pt;font-family:&amp;quot;Arial Rounded MT Bold&amp;quot;,&amp;quot;sans-serif&amp;quot;;&lt;br/&gt;mso-ansi-language:EN-US&quot;&gt;243481&lt;/span&gt;&lt;/p&gt;&lt;br&gt;&lt;br&gt;&lt;p style=&quot;margin-bottom:0in;margin-bottom:.0001pt&quot; class=&quot;MsoNormal&quot;&gt;&lt;span style=&quot;font-size:16.0pt;font-family:&amp;quot;Arial Rounded MT Bold&amp;quot;,&amp;quot;sans-serif&amp;quot;;&lt;br/&gt;mso-ansi-language:EN-US&quot;&gt;&amp;nbsp;&lt;/span&gt;&lt;/p&gt;&lt;br&gt;&lt;br&gt;&lt;p style=&quot;margin-bottom:0in;margin-bottom:.0001pt&quot; class=&quot;MsoNormal&quot;&gt;&lt;span style=&quot;font-size:16.0pt;font-family:&amp;quot;Arial Rounded MT Bold&amp;quot;,&amp;quot;sans-serif&amp;quot;;&lt;br/&gt;mso-ansi-language:EN-US&quot;&gt;CSC 231 ASSIGNMENT&lt;/span&gt;&lt;/p&gt;" style="text;html=1;align=center;verticalAlign=middle;resizable=0;points=[];autosize=1;strokeColor=none;fillColor=none;" vertex="1" parent="1">
                    <mxGeometry x="22" y="30" width="263" height="301" as="geometry"/>
                </mxCell>
                <mxCell id="10" value="&lt;div style=&quot;&quot;&gt;&lt;span style=&quot;background-color: transparent; font-size: 20px; text-indent: -0.25in; font-family: &amp;quot;Arial Rounded MT Bold&amp;quot;, &amp;quot;sans-serif&amp;quot;;&quot;&gt;&lt;br&gt;&lt;/span&gt;&lt;/div&gt;&lt;div style=&quot;&quot;&gt;&lt;span style=&quot;background-color: transparent; font-size: 20px; text-indent: -0.25in; font-family: &amp;quot;Arial Rounded MT Bold&amp;quot;, &amp;quot;sans-serif&amp;quot;;&quot;&gt;QUESTIONS:&lt;/span&gt;&lt;/div&gt;&lt;div style=&quot;&quot;&gt;&lt;span style=&quot;background-color: transparent; font-size: 20px; text-indent: -0.25in; font-family: &amp;quot;Arial Rounded MT Bold&amp;quot;, &amp;quot;sans-serif&amp;quot;;&quot;&gt;&lt;br&gt;&lt;/span&gt;&lt;/div&gt;&lt;div style=&quot;&quot;&gt;&lt;span style=&quot;background-color: transparent; font-size: 20px; text-indent: -0.25in; font-family: &amp;quot;Arial Rounded MT Bold&amp;quot;, &amp;quot;sans-serif&amp;quot;;&quot;&gt;1.&lt;span style=&quot;font-variant-numeric: normal; font-variant-east-asian: normal; font-variant-alternates: normal; font-size-adjust: none; font-kerning: auto; font-optical-sizing: auto; font-feature-settings: normal; font-variation-settings: normal; font-variant-position: normal; font-variant-emoji: normal; font-stretch: normal; line-height: normal; font-family: &amp;quot;Times New Roman&amp;quot;;&quot;&gt;&amp;nbsp;&amp;nbsp;&amp;nbsp; &lt;/span&gt;&lt;/span&gt;&lt;span style=&quot;background-color: transparent; font-size: 20px; text-indent: -0.25in; font-family: &amp;quot;Calibri Light&amp;quot;, &amp;quot;sans-serif&amp;quot;;&quot;&gt;Write an algorithm to calculate the area&lt;/span&gt;&lt;br&gt;&lt;span style=&quot;background-color: transparent; font-family: &amp;quot;Calibri Light&amp;quot;, &amp;quot;sans-serif&amp;quot;; text-indent: -0.25in;&quot;&gt;&lt;span style=&quot;white-space: pre;&quot;&gt;&#x9;&lt;/span&gt;&lt;span style=&quot;white-space: pre;&quot;&gt;&#x9;&lt;/span&gt;&lt;font style=&quot;font-size: 20px;&quot;&gt;of a circle.&amp;nbsp; Represent the Algorithm in&lt;/font&gt;&lt;/span&gt;&lt;font style=&quot;font-size: 20px;&quot;&gt;&lt;br&gt;&lt;span style=&quot;background-color: transparent; text-indent: -0.25in;&quot;&gt;&lt;span style=&quot;white-space: pre;&quot;&gt;&#x9;&lt;/span&gt;flowchart and pseudocode&lt;/span&gt;&lt;/font&gt;&lt;/div&gt;&lt;div style=&quot;&quot;&gt;&lt;div style=&quot;text-indent: -24px;&quot;&gt;&lt;span style=&quot;font-size: 20px;&quot;&gt;&lt;br&gt;&lt;/span&gt;&lt;/div&gt;&lt;span style=&quot;background-color: transparent; font-size: 20px; font-family: &amp;quot;Arial Rounded MT Bold&amp;quot;, &amp;quot;sans-serif&amp;quot;;&quot;&gt;2.&lt;span style=&quot;font-variant-numeric: normal; font-variant-east-asian: normal; font-variant-alternates: normal; font-size-adjust: none; font-kerning: auto; font-optical-sizing: auto; font-feature-settings: normal; font-variation-settings: normal; font-variant-position: normal; font-variant-emoji: normal; font-stretch: normal; line-height: normal; font-family: &amp;quot;Times New Roman&amp;quot;;&quot;&gt;&amp;nbsp;&amp;nbsp;&amp;nbsp; &lt;/span&gt;&lt;/span&gt;&lt;span style=&quot;background-color: transparent; font-size: 20px; font-family: &amp;quot;Calibri Light&amp;quot;, &amp;quot;sans-serif&amp;quot;;&quot;&gt;Look for a problem in your field of study&lt;/span&gt;&lt;br&gt;&lt;font style=&quot;font-size: 20px;&quot;&gt;&lt;span style=&quot;background-color: transparent; font-family: &amp;quot;Calibri Light&amp;quot;, &amp;quot;sans-serif&amp;quot;;&quot;&gt;&lt;span style=&quot;white-space: pre;&quot;&gt;&#x9;&lt;/span&gt;and solve it in form of pseudocode and Flowchart&lt;/span&gt;&lt;br&gt;&lt;/font&gt;&lt;br&gt;&lt;font style=&quot;font-size: 20px;&quot;&gt;&lt;br&gt;&lt;span style=&quot;background-color: transparent; text-indent: -0.25in;&quot;&gt;3.&lt;span style=&quot;font-variant-numeric: normal; font-variant-east-asian: normal; font-variant-alternates: normal; font-size-adjust: none; font-kerning: auto; font-optical-sizing: auto; font-feature-settings: normal; font-variation-settings: normal; font-variant-position: normal; font-variant-emoji: normal; font-stretch: normal; line-height: normal; font-family: &amp;quot;Times New Roman&amp;quot;;&quot;&gt;&amp;nbsp;&amp;nbsp;&amp;nbsp; &lt;/span&gt;&lt;/span&gt;&lt;span style=&quot;background-color: transparent; text-indent: -0.25in; font-family: &amp;quot;Calibri Light&amp;quot;, &amp;quot;sans-serif&amp;quot;;&quot;&gt;Write an algorithm to calculate the&lt;/span&gt;&lt;br&gt;&lt;span style=&quot;background-color: transparent; text-indent: -0.25in;&quot;&gt;&lt;span style=&quot;white-space: pre;&quot;&gt;&#x9;&lt;/span&gt;quadratic equation (ALMIGHTY FORMULA)&lt;/span&gt;&lt;/font&gt;&lt;/div&gt;" style="text;html=1;align=left;verticalAlign=middle;resizable=0;points=[];autosize=1;strokeColor=none;fillColor=none;" vertex="1" parent="1">
                    <mxGeometry x="334" y="23.5" width="451" height="314" as="geometry"/>
                </mxCell>
                <mxCell id="11" value="SOLUTIONS" style="text;html=1;align=center;verticalAlign=middle;resizable=0;points=[];autosize=1;strokeColor=none;fillColor=none;" vertex="1" parent="1">
                    <mxGeometry x="362" y="400" width="87" height="26" as="geometry"/>
                </mxCell>
                <mxCell id="12" value="&lt;p class=&quot;MsoListParagraphCxSpFirst&quot; style=&quot;margin-bottom:0in;margin-bottom:.0001pt;&lt;br/&gt;mso-add-space:auto;text-indent:-.25in;mso-list:l1 level1 lfo1&quot;&gt;&lt;span style=&quot;font-size:16.0pt;font-family:&amp;quot;Arial Rounded MT Bold&amp;quot;,&amp;quot;sans-serif&amp;quot;;&lt;br/&gt;mso-fareast-font-family:&amp;quot;Arial Rounded MT Bold&amp;quot;;mso-bidi-font-family:&amp;quot;Arial Rounded MT Bold&amp;quot;;&lt;br/&gt;mso-ansi-language:EN-US&quot;&gt;1.&lt;span style=&quot;font-variant-numeric: normal; font-variant-east-asian: normal; font-variant-alternates: normal; font-size-adjust: none; font-kerning: auto; font-optical-sizing: auto; font-feature-settings: normal; font-variation-settings: normal; font-variant-position: normal; font-variant-emoji: normal; font-stretch: normal; font-size: 7pt; line-height: normal; font-family: &amp;quot;Times New Roman&amp;quot;;&quot;&gt;&amp;nbsp; &lt;/span&gt;&lt;/span&gt;&lt;span style=&quot;font-size:16.0pt;font-family:&amp;quot;Arial Rounded MT Bold&amp;quot;,&amp;quot;sans-serif&amp;quot;;&lt;br/&gt;mso-ansi-language:EN-US&quot;&gt;Area of Circle&lt;/span&gt;&lt;/p&gt;&lt;br&gt;&lt;br&gt;&lt;p class=&quot;MsoListParagraphCxSpMiddle&quot; style=&quot;margin-top:0in;margin-right:0in;&lt;br/&gt;margin-bottom:0in;margin-left:1.0in;margin-bottom:.0001pt;mso-add-space:auto;&lt;br/&gt;text-indent:-.25in;mso-list:l2 level1 lfo2&quot;&gt;&lt;span style=&quot;font-size:16.0pt;font-family:Symbol;mso-fareast-font-family:Symbol;&lt;br/&gt;mso-bidi-font-family:Symbol;mso-ansi-language:EN-US&quot;&gt;Â·&lt;span style=&quot;font-variant-numeric: normal; font-variant-east-asian: normal; font-variant-alternates: normal; font-size-adjust: none; font-kerning: auto; font-optical-sizing: auto; font-feature-settings: normal; font-variation-settings: normal; font-variant-position: normal; font-variant-emoji: normal; font-stretch: normal; font-size: 7pt; line-height: normal; font-family: &amp;quot;Times New Roman&amp;quot;;&quot;&gt;&amp;nbsp;&amp;nbsp;&amp;nbsp;&amp;nbsp;&amp;nbsp;&lt;/span&gt;&lt;/span&gt;&lt;span style=&quot;mso-bidi-font-size:14.0pt;&lt;br/&gt;font-family:&amp;quot;Arial Rounded MT Bold&amp;quot;,&amp;quot;sans-serif&amp;quot;;mso-ansi-language:EN-US&quot;&gt;Pseudo-code&lt;/span&gt;&lt;span style=&quot;font-size:16.0pt;font-family:&amp;quot;Arial Rounded MT Bold&amp;quot;,&amp;quot;sans-serif&amp;quot;;&lt;br/&gt;mso-ansi-language:EN-US&quot;&gt;&lt;/span&gt;&lt;/p&gt;&lt;br&gt;&lt;br&gt;&lt;p class=&quot;MsoListParagraphCxSpMiddle&quot; style=&quot;margin-top:0in;margin-right:0in;&lt;br/&gt;margin-bottom:0in;margin-left:1.75in;margin-bottom:.0001pt;mso-add-space:auto;&lt;br/&gt;text-indent:-.25in;mso-list:l0 level1 lfo3&quot;&gt;&lt;font style=&quot;font-size: 15px;&quot;&gt;&lt;span style=&quot;mso-bidi-font-size:14.0pt;font-family:&amp;quot;Calibri Light&amp;quot;,&amp;quot;sans-serif&amp;quot;;&lt;br/&gt;mso-ascii-theme-font:major-latin;mso-fareast-font-family:&amp;quot;Calibri Light&amp;quot;;&lt;br/&gt;mso-fareast-theme-font:major-latin;mso-hansi-theme-font:major-latin;mso-bidi-theme-font:&lt;br/&gt;major-latin;mso-ansi-language:EN-US&quot;&gt;1.&lt;span style=&quot;font-variant-numeric: normal; font-variant-east-asian: normal; font-variant-alternates: normal; font-size-adjust: none; font-kerning: auto; font-optical-sizing: auto; font-feature-settings: normal; font-variation-settings: normal; font-variant-position: normal; font-variant-emoji: normal; font-stretch: normal; line-height: normal; font-family: &amp;quot;Times New Roman&amp;quot;;&quot;&gt;&amp;nbsp;&amp;nbsp;&amp;nbsp;&amp;nbsp; &lt;/span&gt;&lt;/span&gt;&lt;span style=&quot;mso-bidi-font-size:14.0pt;font-family:&amp;quot;Calibri Light&amp;quot;,&amp;quot;sans-serif&amp;quot;;&lt;br/&gt;mso-ascii-theme-font:major-latin;mso-hansi-theme-font:major-latin;mso-bidi-theme-font:&lt;br/&gt;major-latin;mso-ansi-language:EN-US&quot;&gt;Input r = radius&lt;/span&gt;&lt;/font&gt;&lt;/p&gt;&lt;font style=&quot;font-size: 15px;&quot;&gt;&lt;br&gt;&lt;br&gt;&lt;/font&gt;&lt;p class=&quot;MsoListParagraphCxSpMiddle&quot; style=&quot;margin-top:0in;margin-right:0in;&lt;br/&gt;margin-bottom:0in;margin-left:1.75in;margin-bottom:.0001pt;mso-add-space:auto;&lt;br/&gt;text-indent:-.25in;mso-list:l0 level1 lfo3&quot;&gt;&lt;font style=&quot;font-size: 15px;&quot;&gt;&lt;span style=&quot;mso-bidi-font-size:14.0pt;font-family:&amp;quot;Calibri Light&amp;quot;,&amp;quot;sans-serif&amp;quot;;&lt;br/&gt;mso-ascii-theme-font:major-latin;mso-fareast-font-family:&amp;quot;Calibri Light&amp;quot;;&lt;br/&gt;mso-fareast-theme-font:major-latin;mso-hansi-theme-font:major-latin;mso-bidi-theme-font:&lt;br/&gt;major-latin;mso-ansi-language:EN-US&quot;&gt;2.&lt;span style=&quot;font-variant-numeric: normal; font-variant-east-asian: normal; font-variant-alternates: normal; font-size-adjust: none; font-kerning: auto; font-optical-sizing: auto; font-feature-settings: normal; font-variation-settings: normal; font-variant-position: normal; font-variant-emoji: normal; font-stretch: normal; line-height: normal; font-family: &amp;quot;Times New Roman&amp;quot;;&quot;&gt;&amp;nbsp;&amp;nbsp;&amp;nbsp;&amp;nbsp; &lt;/span&gt;&lt;/span&gt;&lt;span style=&quot;mso-bidi-font-size:14.0pt;font-family:&amp;quot;Calibri Light&amp;quot;,&amp;quot;sans-serif&amp;quot;;&lt;br/&gt;mso-ascii-theme-font:major-latin;mso-hansi-theme-font:major-latin;mso-bidi-theme-font:&lt;br/&gt;major-latin;mso-ansi-language:EN-US&quot;&gt;Let pi = 3.1415926&lt;/span&gt;&lt;/font&gt;&lt;/p&gt;&lt;font style=&quot;font-size: 15px;&quot;&gt;&lt;br&gt;&lt;br&gt;&lt;/font&gt;&lt;p class=&quot;MsoListParagraphCxSpMiddle&quot; style=&quot;margin-top:0in;margin-right:0in;&lt;br/&gt;margin-bottom:0in;margin-left:1.75in;margin-bottom:.0001pt;mso-add-space:auto;&lt;br/&gt;text-indent:-.25in;mso-list:l0 level1 lfo3&quot;&gt;&lt;font style=&quot;font-size: 15px;&quot;&gt;&lt;span style=&quot;mso-bidi-font-size:14.0pt;font-family:&amp;quot;Calibri Light&amp;quot;,&amp;quot;sans-serif&amp;quot;;&lt;br/&gt;mso-ascii-theme-font:major-latin;mso-fareast-font-family:&amp;quot;Calibri Light&amp;quot;;&lt;br/&gt;mso-fareast-theme-font:major-latin;mso-hansi-theme-font:major-latin;mso-bidi-theme-font:&lt;br/&gt;major-latin;mso-ansi-language:EN-US&quot;&gt;3.&lt;span style=&quot;font-variant-numeric: normal; font-variant-east-asian: normal; font-variant-alternates: normal; font-size-adjust: none; font-kerning: auto; font-optical-sizing: auto; font-feature-settings: normal; font-variation-settings: normal; font-variant-position: normal; font-variant-emoji: normal; font-stretch: normal; line-height: normal; font-family: &amp;quot;Times New Roman&amp;quot;;&quot;&gt;&amp;nbsp;&amp;nbsp;&amp;nbsp;&amp;nbsp; &lt;/span&gt;&lt;/span&gt;&lt;span style=&quot;mso-bidi-font-size:14.0pt;font-family:&amp;quot;Calibri Light&amp;quot;,&amp;quot;sans-serif&amp;quot;;&lt;br/&gt;mso-ascii-theme-font:major-latin;mso-hansi-theme-font:major-latin;mso-bidi-theme-font:&lt;br/&gt;major-latin;mso-ansi-language:EN-US&quot;&gt;Compute area = pi * r *r&lt;/span&gt;&lt;/font&gt;&lt;/p&gt;&lt;p class=&quot;MsoListParagraphCxSpMiddle&quot; style=&quot;margin-top:0in;margin-right:0in;&lt;br/&gt;margin-bottom:0in;margin-left:1.75in;margin-bottom:.0001pt;mso-add-space:auto;&lt;br/&gt;text-indent:-.25in;mso-list:l0 level1 lfo3&quot;&gt;&lt;span style=&quot;background-color: transparent; font-family: &amp;quot;Calibri Light&amp;quot;, &amp;quot;sans-serif&amp;quot;;&quot;&gt;&lt;font style=&quot;font-size: 15px;&quot;&gt;&lt;br&gt;&lt;/font&gt;&lt;/span&gt;&lt;/p&gt;&lt;p class=&quot;MsoListParagraphCxSpMiddle&quot; style=&quot;margin-top:0in;margin-right:0in;&lt;br/&gt;margin-bottom:0in;margin-left:1.75in;margin-bottom:.0001pt;mso-add-space:auto;&lt;br/&gt;text-indent:-.25in;mso-list:l0 level1 lfo3&quot;&gt;&lt;font style=&quot;font-size: 15px;&quot;&gt;&lt;span style=&quot;background-color: transparent; font-family: &amp;quot;Calibri Light&amp;quot;, &amp;quot;sans-serif&amp;quot;;&quot;&gt;4.&lt;span style=&quot;font-variant-numeric: normal; font-variant-east-asian: normal; font-variant-alternates: normal; font-size-adjust: none; font-kerning: auto; font-optical-sizing: auto; font-feature-settings: normal; font-variation-settings: normal; font-variant-position: normal; font-variant-emoji: normal; font-stretch: normal; line-height: normal; font-family: &amp;quot;Times New Roman&amp;quot;;&quot;&gt;&amp;nbsp;&amp;nbsp;&amp;nbsp;&amp;nbsp; &lt;/span&gt;&lt;/span&gt;&lt;span style=&quot;background-color: transparent; font-family: &amp;quot;Calibri Light&amp;quot;, &amp;quot;sans-serif&amp;quot;;&quot;&gt;Print(area)&lt;/span&gt;&lt;/font&gt;&lt;/p&gt;&lt;font style=&quot;font-size: 15px;&quot;&gt;&lt;br&gt;&lt;/font&gt;&lt;p class=&quot;MsoListParagraphCxSpLast&quot; style=&quot;margin-top:0in;margin-right:0in;&lt;br/&gt;margin-bottom:0in;margin-left:1.75in;margin-bottom:.0001pt;mso-add-space:auto;&lt;br/&gt;text-indent:-.25in;mso-list:l0 level1 lfo3&quot;&gt;&lt;font style=&quot;font-size: 15px;&quot;&gt;&lt;span style=&quot;mso-bidi-font-size:14.0pt;font-family:&amp;quot;Calibri Light&amp;quot;,&amp;quot;sans-serif&amp;quot;;&lt;br/&gt;mso-ascii-theme-font:major-latin;mso-fareast-font-family:&amp;quot;Calibri Light&amp;quot;;&lt;br/&gt;mso-fareast-theme-font:major-latin;mso-hansi-theme-font:major-latin;mso-bidi-theme-font:&lt;br/&gt;major-latin;mso-ansi-language:EN-US&quot;&gt;5.&lt;span style=&quot;font-variant-numeric: normal; font-variant-east-asian: normal; font-variant-alternates: normal; font-size-adjust: none; font-kerning: auto; font-optical-sizing: auto; font-feature-settings: normal; font-variation-settings: normal; font-variant-position: normal; font-variant-emoji: normal; font-stretch: normal; line-height: normal; font-family: &amp;quot;Times New Roman&amp;quot;;&quot;&gt;&amp;nbsp;&amp;nbsp;&amp;nbsp;&amp;nbsp; &lt;/span&gt;&lt;/span&gt;&lt;span style=&quot;mso-bidi-font-size:14.0pt;font-family:&amp;quot;Calibri Light&amp;quot;,&amp;quot;sans-serif&amp;quot;;&lt;br/&gt;mso-ascii-theme-font:major-latin;mso-hansi-theme-font:major-latin;mso-bidi-theme-font:&lt;br/&gt;major-latin;mso-ansi-language:EN-US&quot;&gt;End&lt;/span&gt;&lt;/font&gt;&lt;/p&gt;&lt;br&gt;&lt;br&gt;&lt;p class=&quot;MsoListParagraph&quot; style=&quot;margin-top:0in;margin-right:0in;margin-bottom:&lt;br/&gt;0in;margin-left:1.0in;margin-bottom:.0001pt;mso-add-space:auto;text-indent:&lt;br/&gt;-.25in;mso-list:l2 level1 lfo2&quot;&gt;&lt;font style=&quot;font-size: 15px;&quot;&gt;&lt;span style=&quot;font-family: Symbol;&quot;&gt;Â·&lt;span style=&quot;font-variant-numeric: normal; font-variant-east-asian: normal; font-variant-alternates: normal; font-size-adjust: none; font-kerning: auto; font-optical-sizing: auto; font-feature-settings: normal; font-variation-settings: normal; font-variant-position: normal; font-variant-emoji: normal; font-stretch: normal; line-height: normal; font-family: &amp;quot;Times New Roman&amp;quot;;&quot;&gt;&amp;nbsp;&amp;nbsp;&amp;nbsp;&amp;nbsp;&amp;nbsp; &lt;/span&gt;&lt;/span&gt;&lt;span style=&quot;font-family: &amp;quot;Arial Rounded MT Bold&amp;quot;, &amp;quot;sans-serif&amp;quot;;&quot;&gt;Flowchart&lt;/span&gt;&lt;/font&gt;&lt;span style=&quot;mso-bidi-font-size:14.0pt;&lt;br/&gt;font-family:&amp;quot;Arial Black&amp;quot;,&amp;quot;sans-serif&amp;quot;;mso-bidi-font-family:&amp;quot;Calibri Light&amp;quot;;&lt;br/&gt;mso-bidi-theme-font:major-latin;mso-ansi-language:EN-US&quot;&gt;&lt;/span&gt;&lt;/p&gt;&lt;p class=&quot;MsoListParagraph&quot; style=&quot;margin-top:0in;margin-right:0in;margin-bottom:&lt;br/&gt;0in;margin-left:1.0in;margin-bottom:.0001pt;mso-add-space:auto;text-indent:&lt;br/&gt;-.25in;mso-list:l2 level1 lfo2&quot;&gt;&lt;font style=&quot;font-size: 15px;&quot;&gt;&lt;span style=&quot;font-family: &amp;quot;Arial Rounded MT Bold&amp;quot;, &amp;quot;sans-serif&amp;quot;;&quot;&gt;&lt;br&gt;&lt;/span&gt;&lt;/font&gt;&lt;/p&gt;&lt;p class=&quot;MsoListParagraph&quot; style=&quot;margin-top:0in;margin-right:0in;margin-bottom:&lt;br/&gt;0in;margin-left:1.0in;margin-bottom:.0001pt;mso-add-space:auto;text-indent:&lt;br/&gt;-.25in;mso-list:l2 level1 lfo2&quot;&gt;&lt;font style=&quot;font-size: 15px;&quot;&gt;&lt;span style=&quot;font-family: &amp;quot;Arial Rounded MT Bold&amp;quot;, &amp;quot;sans-serif&amp;quot;;&quot;&gt;&lt;br&gt;&lt;/span&gt;&lt;/font&gt;&lt;/p&gt;&lt;p class=&quot;MsoListParagraph&quot; style=&quot;margin-top:0in;margin-right:0in;margin-bottom:&lt;br/&gt;0in;margin-left:1.0in;margin-bottom:.0001pt;mso-add-space:auto;text-indent:&lt;br/&gt;-.25in;mso-list:l2 level1 lfo2&quot;&gt;&lt;font style=&quot;font-size: 15px;&quot;&gt;&lt;span style=&quot;font-family: &amp;quot;Arial Rounded MT Bold&amp;quot;, &amp;quot;sans-serif&amp;quot;;&quot;&gt;&lt;br&gt;&lt;/span&gt;&lt;/font&gt;&lt;/p&gt;" style="text;html=1;align=left;verticalAlign=middle;resizable=0;points=[];autosize=1;strokeColor=none;fillColor=none;" vertex="1" parent="1">
                    <mxGeometry x="90" y="498" width="362" height="433" as="geometry"/>
                </mxCell>
                <mxCell id="15" value="" style="edgeStyle=none;html=1;" edge="1" parent="1" source="13" target="14">
                    <mxGeometry relative="1" as="geometry"/>
                </mxCell>
                <mxCell id="13" value="START" style="ellipse;whiteSpace=wrap;html=1;labelBackgroundColor=default;" vertex="1" parent="1">
                    <mxGeometry x="233" y="882" width="120" height="80" as="geometry"/>
                </mxCell>
                <mxCell id="19" value="" style="edgeStyle=none;html=1;" edge="1" parent="1" source="14" target="18">
                    <mxGeometry relative="1" as="geometry"/>
                </mxCell>
                <mxCell id="14" value="&lt;font style=&quot;font-size: 20px;&quot;&gt;INPUT RADIUS&lt;/font&gt;" style="shape=parallelogram;perimeter=parallelogramPerimeter;whiteSpace=wrap;html=1;fixedSize=1;labelBackgroundColor=default;" vertex="1" parent="1">
                    <mxGeometry x="197" y="1005" width="202" height="60" as="geometry"/>
                </mxCell>
                <mxCell id="21" value="" style="edgeStyle=none;html=1;" edge="1" parent="1" source="18" target="20">
                    <mxGeometry relative="1" as="geometry"/>
                </mxCell>
                <mxCell id="18" value="&lt;font style=&quot;font-size: 20px;&quot;&gt;Set PI to 3.142&lt;/font&gt;" style="shape=parallelogram;perimeter=parallelogramPerimeter;whiteSpace=wrap;html=1;fixedSize=1;labelBackgroundColor=default;" vertex="1" parent="1">
                    <mxGeometry x="197" y="1145" width="202" height="60" as="geometry"/>
                </mxCell>
                <mxCell id="23" value="" style="edgeStyle=none;html=1;" edge="1" parent="1" source="20" target="22">
                    <mxGeometry relative="1" as="geometry"/>
                </mxCell>
                <mxCell id="20" value="&lt;span style=&quot;font-size: 20px;&quot;&gt;RESULT = PI * RADIUS&lt;sup&gt;2&lt;/sup&gt;&lt;/span&gt;" style="whiteSpace=wrap;html=1;labelBackgroundColor=default;" vertex="1" parent="1">
                    <mxGeometry x="115" y="1285" width="365" height="60" as="geometry"/>
                </mxCell>
                <mxCell id="22" value="&lt;font style=&quot;font-size: 20px;&quot;&gt;DISPLAY RESULT&lt;/font&gt;" style="shape=parallelogram;perimeter=parallelogramPerimeter;whiteSpace=wrap;html=1;fixedSize=1;labelBackgroundColor=default;" vertex="1" parent="1">
                    <mxGeometry x="138" y="1432" width="310" height="60" as="geometry"/>
                </mxCell>
                <mxCell id="25" value="&lt;h1 style=&quot;margin-top: 0px;&quot;&gt;&lt;font&gt;2.&lt;font style=&quot;&quot;&gt;&amp;nbsp;Digital Twin for Student Mental Health Monitoring&lt;/font&gt;&lt;/font&gt;&lt;/h1&gt;&lt;div&gt;&lt;font style=&quot;font-size: 27px;&quot;&gt;&lt;b&gt;Description&lt;/b&gt;&lt;/font&gt;&lt;font style=&quot;font-size: 20px;&quot;&gt;:&lt;/font&gt;&lt;font style=&quot;font-size: 22px;&quot;&gt;&lt;font style=&quot;&quot;&gt;&amp;nbsp;&lt;/font&gt;&lt;span style=&quot;background-color: transparent;&quot;&gt;University students often suffer from stress, anxiety, or burnout, especially during exams or final projects. Most mental health services on campus are reactive â students must reach out &lt;/span&gt;&lt;em style=&quot;background-color: transparent;&quot; data-end=&quot;563&quot; data-start=&quot;556&quot;&gt;after&lt;/em&gt;&lt;span style=&quot;background-color: transparent;&quot;&gt; a crisis. But what if the university could spot patterns and intervene &lt;/span&gt;&lt;em style=&quot;background-color: transparent;&quot; data-end=&quot;643&quot; data-start=&quot;635&quot;&gt;before&lt;/em&gt;&lt;span style=&quot;background-color: transparent;&quot;&gt; things escalate?&lt;/span&gt;&lt;/font&gt;&lt;/div&gt;&lt;div&gt;&lt;br&gt;&lt;/div&gt;" style="text;html=1;whiteSpace=wrap;overflow=hidden;rounded=0;" vertex="1" parent="1">
                    <mxGeometry x="63" y="1622" width="724" height="207" as="geometry"/>
                </mxCell>
            </root>
        </mxGraphModel>
    </diagram>
</mxfile>